<?xml version="1.0" standalone="no"?>
<!DOCTYPE svg PUBLIC "-//W3C//DTD SVG 20010904//EN"
 "http://www.w3.org/TR/2001/REC-SVG-20010904/DTD/svg10.dtd">
<svg version="1.0" xmlns="http://www.w3.org/2000/svg"
 width="260.000000pt" height="260.000000pt" viewBox="0 0 260.000000 260.000000"
 preserveAspectRatio="xMidYMid meet">
<metadata>
Created by potrace 1.11, written by Peter Selinger 2001-2013
</metadata>
<g transform="translate(0.000000,260.000000) scale(0.100000,-0.100000)"
fill="#000000" stroke="none">
<path d="M0 1300 l0 -1300 1300 0 1300 0 0 1300 0 1300 -1300 0 -1300 0 0
-1300z m942 933 c9 -21 57 -137 107 -258 51 -121 116 -287 146 -370 30 -82 70
-195 90 -250 66 -182 97 -269 113 -323 8 -29 20 -51 26 -49 6 2 16 30 22 63 6
32 25 127 42 209 140 674 202 986 202 1007 0 4 122 8 270 8 149 0 270 -2 270
-4 0 -4 -86 -381 -131 -571 -17 -71 -41 -177 -55 -235 -30 -129 -77 -331 -109
-465 -14 -55 -40 -170 -60 -255 -20 -85 -44 -189 -55 -230 -10 -41 -23 -101
-30 -132 l-11 -58 -327 0 -327 0 -21 73 c-12 39 -38 117 -58 172 -20 55 -61
168 -90 250 -30 83 -80 215 -111 295 -32 80 -75 196 -97 259 -21 63 -74 195
-117 295 -44 99 -100 233 -126 296 -26 63 -67 156 -91 205 -24 50 -44 94 -44
98 0 4 125 7 278 7 l279 0 15 -37z"/>
</g>
</svg>
