<svg xmlns="http://www.w3.org/2000/svg" viewBox="0 0 19.5 18"><title>pornq</title><g id="Layer_2" data-name="Layer 2"><g id="Layer_1-2" data-name="Layer 1"><g id="PornQ"><path id="Shape" d="M9.95,13c-.37,0-.26,1-.26,1,1.89.73,1,1.83,4.61,3.42s5.17-.63,5.17-.63.19-.41-.32-.51-.6.22-1.55-.12c-1.37-.41-2.51-3.21-3.87-3.62a1.87,1.87,0,0,0-2,.29Z" style="fill:#b71c1c"/><path id="Path-2-2" d="M4.38,1.13c9.44-4.81,17,7,10.91,11.72-.26-1.08-1.94-2-2-4,0-2.51-1.77-5.41-5.17-5.13S3.62,6.26,4.24,10.63c.88,4.17,5.09,1.26,6.55,6.29C2.47,21.63-5.05,5.93,4.38,1.13Z" style="fill:#b71c1c"/></g></g></g></svg>