<svg xmlns="http://www.w3.org/2000/svg" viewBox="0 0 42.16 25"><g id="Layer_2" data-name="Layer 2"><g id="Layer_1-2" data-name="Layer 1"><path id="see" d="M28.17.09a7.55,7.55,0,0,0-3.65,1.67c-1.33,1-2.15,1.43-2.7,1.43a3.34,3.34,0,0,1-1.06-.47C16.6.22,14.08,0,11,1.78a25.52,25.52,0,0,0-4.2,4,12.25,12.25,0,0,1-5.3,3.74C.1,10-.36,10.91.29,12A52.72,52.72,0,0,0,5.86,18.4a23.8,23.8,0,0,0,10.73,6.27,16,16,0,0,0,4.3.22c1.71,0,3.49,0,4,.08A9.25,9.25,0,0,0,29,24.21c3-1.11,4.81-2.75,10.55-9.36,1.27-1.45,2.35-2.75,2.44-2.91a2.56,2.56,0,0,0,.17-.9,1.27,1.27,0,0,0-1.09-1.36c-.88-.25-1.59-.79-3-2.31a25.88,25.88,0,0,1-2.57-3.21,8.76,8.76,0,0,0-2.81-3.1A6.22,6.22,0,0,0,28.17.09Zm2.95,1.42a7,7,0,0,1,1.2.85,7.38,7.38,0,0,1,1.55,1.91,7.73,7.73,0,0,1-1.15-.58c-2.25-1.31-4.34-1.78-5.79-1.33-.12,0,0-.16.34-.44a3.13,3.13,0,0,1,1-.66A5.24,5.24,0,0,1,31.12,1.51ZM16.6,2.26a7.51,7.51,0,0,1,1.45,1l.65.58-.78-.26a12.19,12.19,0,0,0-4-.67A11.57,11.57,0,0,0,12.17,3c-.3.08-.28.05.13-.31A3.87,3.87,0,0,1,16.6,2.26Zm8.13,3.92c.58.16.69.44.56,1.49S25,8.88,22.91,8.88c-1,0-2,0-2.2.08-.4.09-.41.09-.13.28s.27.27.19,1l-.08.8.54-.1a5.76,5.76,0,0,1,2.22,0c.37.14.44.47.31,1.36s-.3,1.06-1.76,1.15c-1.86.12-1.78.06-2,1.28a5.91,5.91,0,0,0-.09,1.1,8.16,8.16,0,0,0,1.34-.16,13,13,0,0,1,2.24-.17l1,0,.12.49a2.3,2.3,0,0,1-.49,2,2.08,2.08,0,0,1-1.25.36c-.53,0-1.55.14-2.26.23a4.8,4.8,0,0,1-2.16-.06c-1.65-.4-2-.85-1.93-2.68a26.29,26.29,0,0,1,.56-4.68l.27-1.38-.27-.72c-.34-.9-.34-1.11,0-1.54.71-.9,2.87-1.43,6.06-1.49A7.7,7.7,0,0,1,24.73,6.18Zm9.73.12a2.84,2.84,0,0,1-.1,2.24l-.22.35H32.28c-1,0-2,0-2.24.08L29.66,9l.31.31a.68.68,0,0,1,.25.54c0,.12-.09.43-.13.67L30,11l1-.12c1.85-.22,2.31.05,2.16,1.23s-.36,1.23-1.86,1.32a7.39,7.39,0,0,0-1.55.21c-.18.1-.27.37-.36,1.14a5.59,5.59,0,0,0-.09,1.06,3.42,3.42,0,0,0,.79-.1,17.18,17.18,0,0,1,2.16-.23c1.28-.08,1.42-.05,1.58.16a2.22,2.22,0,0,1-.49,2.44,19.41,19.41,0,0,1-4.64.52,3.1,3.1,0,0,1-1.62-.32,2,2,0,0,1-1.22-2.13,29.34,29.34,0,0,1,.57-5l.28-1.42L26.42,9c-.36-.89-.36-1.06,0-1.49.75-.94,3.26-1.51,6.41-1.45A3.87,3.87,0,0,1,34.46,6.3Zm-21.81,0a5.64,5.64,0,0,1,2.81,1.19,1.43,1.43,0,0,1,.32,1.14c0,1.29-.83,3.36-1.41,3.55a2.72,2.72,0,0,1-1.82-.59.89.89,0,0,1,0-.74c.18-.69.16-1.4-.06-1.58-.5-.41-1.76.34-1.94,1.16A1.7,1.7,0,0,0,11.08,12a9.14,9.14,0,0,0,1.55.72,7.06,7.06,0,0,1,1.67.87,2.58,2.58,0,0,1,.8,2.28c-.18,2.09-1.77,3.17-4.2,2.87C8.66,18.42,7,16.94,7,15.2c0-1,.39-1.14,1.43-.41,1.55,1.06,3.37,1.11,3,.06-.09-.27-.34-.44-1.09-.76l-1.47-.63a3.12,3.12,0,0,1-1.63-1.77,4.57,4.57,0,0,1,3.36-5.31A3.61,3.61,0,0,1,12.66,6.3ZM33.17,19.73c-.32.28-3.45,2.22-4.2,2.6a13.58,13.58,0,0,1-5.82,1.42c-.76,0-1.07-.05-1.28-.23s-.26-.25-.08-.5.79-.52,3.4-.83a16.52,16.52,0,0,0,7-2.11C32.85,19.68,33.47,19.44,33.17,19.73Z" style="fill:#ed2425"/></g></g></svg>
