<svg xmlns="http://www.w3.org/2000/svg" viewBox="0 0 29.7 36.6"><title>shemalez</title><g id="Layer_2" data-name="Layer 2"><g id="Layer_1-2" data-name="Layer 1"><g id="Page-1"><g id="TXXX-network"><path id="shemalez" d="M16.5,8.6H1.7A7.84,7.84,0,0,1,.9,6.8,10,10,0,0,1,.5,4.4,4.61,4.61,0,0,1,1.5,1,3.62,3.62,0,0,1,4.2,0H26.6a7,7,0,0,1,2.6,5.8,6.58,6.58,0,0,1-.7,3,16.65,16.65,0,0,1-1.8,2.8L13.1,28H28.5a7.84,7.84,0,0,1,.8,1.8,10,10,0,0,1,.4,2.4,5.1,5.1,0,0,1-1,3.4,3.62,3.62,0,0,1-2.7,1H2.4A6.9,6.9,0,0,1,.7,34.3,8.84,8.84,0,0,1,0,31a7.51,7.51,0,0,1,.8-3.1A13.16,13.16,0,0,1,2.7,25Z" style="fill:#ed278b"/></g></g></g></g></svg>