<svg xmlns="http://www.w3.org/2000/svg" viewBox="0 0 17.32 17.92"><title>thegay</title><g id="Layer_2" data-name="Layer 2"><g id="Layer_1-2" data-name="Layer 1"><g id="The-Gay"><path id="Path-9" d="M11.89,13.52a5.62,5.62,0,0,1-6.33-.37L3.19,15.89a8.6,8.6,0,0,0,11.47-.15Z" transform="translate(-0.01 -0.08)" style="fill:#f26522"/><path id="Path-10" d="M3.2,15.89l2.38-2.73a5.23,5.23,0,0,1-1.76-5.6L.11,7.46C-.42,12.26,1.3,14.1,3.2,15.89Z" transform="translate(-0.01 -0.08)" style="fill:#ffde16"/><path id="Path-11" d="M3.82,7.56.11,7.46A8.78,8.78,0,0,1,4.67,1.2l2.09,3A5.54,5.54,0,0,0,3.82,7.56Z" transform="translate(-0.01 -0.08)" style="fill:#0ba14b"/><path id="Path-12" d="M0,0" transform="translate(-0.01 -0.08)" style="fill:#0ba14b"/><path id="Path-13" d="M4.66,1.2a8.44,8.44,0,0,1,8.61.12l-2.07,3a6.17,6.17,0,0,0-4.45-.1Z" transform="translate(-0.01 -0.08)" style="fill:#20409a"/><path id="Path-14" d="M0,0" transform="translate(-0.01 -0.08)" style="fill:#20409a"/><path id="Path-15" d="M0,0" transform="translate(-0.01 -0.08)" style="fill:#20409a"/><path id="Path-16" d="M13.26,1.31q2.08,1,3.76,4.59L12.4,6A2.49,2.49,0,0,0,11.15,4.3Z" transform="translate(-0.01 -0.08)" style="fill:#7f3f98"/><path id="Path-17" d="M14.65,15.73a9.2,9.2,0,0,0,2.54-8.29H8.91v3.42h4.76a5.84,5.84,0,0,1-1.78,2.67Z" transform="translate(-0.01 -0.08)" style="fill:#ed1c24"/></g></g></g></svg>