<svg xmlns="http://www.w3.org/2000/svg" viewBox="0 0 18.96 18.01"><title>txxx</title><g id="Layer_2" data-name="Layer 2"><g id="Layer_1-2" data-name="Layer 1"><g id="TXXX"><polygon id="Path-8" points="18.96 7.52 18.23 6.3 18.13 0.02 18.7 0.01 18.96 0.14 18.96 7.52" style="fill:#b83d44"/><polygon id="Path-3" points="0.01 6.79 0.47 7.53 18.96 7.53 18.63 6.64 0.04 6.52 0.01 6.79" style="fill:#681317"/><polygon id="Path-6" points="13.3 17.98 12.35 16.48 12.25 5.45 13.3 7.52 13.3 17.98" style="fill:#b83d44"/><path id="Path-4" d="M6,17.33l.46.67h6.89l-.41-.76-7-.55H6Z" style="fill:#681317"/><g id="Path"><polygon id="path-1" points="0.28 0.28 18.43 0.28 18.43 6.55 12.65 6.55 12.65 17.05 6.23 17.05 6.23 6.52 0.29 6.52 0.28 0.28" style="fill:#ac1f27"/><path d="M12.79,6.69v10.5H6.09V6.67H.15V.14H18.57V6.69Z" style="fill:none;stroke:#c4464d;stroke-width:0.2830771205305471px"/></g><path id="Path-2" d="M15.43.57h2.72q0,2.14-.05,2.45Q17.87,1.51,15.43.57Z" style="fill:#dda3a7"/></g></g></g></svg>