<svg xmlns="http://www.w3.org/2000/svg" xmlns:xlink="http://www.w3.org/1999/xlink" viewBox="0 0 21.85 18"><defs><linearGradient id="linear-gradient" x1="419.4" y1="-3124.31" x2="419.4" y2="-3119.13" gradientTransform="matrix(0.91, 0.41, 0.41, -0.91, 900.34, -3014.84)" gradientUnits="userSpaceOnUse"><stop offset="0" stop-color="#e5e5e5"/><stop offset="1" stop-color="#a1a1a1"/></linearGradient><linearGradient id="linear-gradient-2" x1="418.66" y1="-3129.53" x2="418.66" y2="-3119.38" gradientTransform="matrix(0.91, 0.41, 0.41, -0.91, 900.34, -3014.84)" gradientUnits="userSpaceOnUse"><stop offset="0" stop-color="#7e7e7d"/><stop offset="1" stop-color="#d8d8d8"/></linearGradient><linearGradient id="linear-gradient-3" x1="418.96" y1="-3124.31" x2="418.96" y2="-3119.13" gradientTransform="matrix(0.91, 0.41, 0.41, -0.91, 900.34, -3014.84)" gradientUnits="userSpaceOnUse"><stop offset="0" stop-color="#fff"/><stop offset="1" stop-color="#b4b4b4"/></linearGradient><linearGradient id="linear-gradient-4" x1="420.63" y1="-3127.94" x2="420.63" y2="-3122.76" xlink:href="#linear-gradient"/><linearGradient id="linear-gradient-5" x1="15.62" y1="-235.63" x2="19.66" y2="-230.24" gradientTransform="matrix(1, 0, 0, -1, 0, -220.7)" xlink:href="#linear-gradient-2"/><linearGradient id="linear-gradient-6" x1="420.18" y1="-3127.94" x2="420.18" y2="-3122.76" xlink:href="#linear-gradient-3"/><linearGradient id="linear-gradient-7" x1="12601.73" y1="2273.28" x2="12601.73" y2="2278.47" gradientTransform="translate(12442.46 -3014.84) rotate(156.1)" xlink:href="#linear-gradient"/><linearGradient id="linear-gradient-8" x1="12600.97" y1="2268.06" x2="12600.97" y2="2278.21" gradientTransform="translate(12442.46 -3014.84) rotate(156.1)" xlink:href="#linear-gradient-2"/><linearGradient id="linear-gradient-9" x1="12601.29" y1="2273.28" x2="12601.29" y2="2278.47" gradientTransform="translate(12442.46 -3014.84) rotate(156.1)" xlink:href="#linear-gradient-3"/><linearGradient id="linear-gradient-10" x1="12602.5" y1="2273.29" x2="12602.5" y2="2278.47" gradientTransform="translate(12442.46 -3014.84) rotate(156.1)" xlink:href="#linear-gradient-3"/><linearGradient id="linear-gradient-11" x1="12602.96" y1="2269.65" x2="12602.96" y2="2274.83" gradientTransform="translate(12442.46 -3014.84) rotate(156.1)" xlink:href="#linear-gradient"/><linearGradient id="linear-gradient-12" x1="2.66" y1="-239.79" x2="2.66" y2="-230.93" gradientTransform="matrix(1, 0, 0, -1, 0, -220.7)" xlink:href="#linear-gradient-2"/><linearGradient id="linear-gradient-13" x1="12602.51" y1="2269.65" x2="12602.51" y2="2274.83" gradientTransform="translate(12442.46 -3014.84) rotate(156.1)" xlink:href="#linear-gradient-3"/><linearGradient id="linear-gradient-14" x1="6.63" y1="-225.25" x2="3.75" y2="-219.94" gradientTransform="matrix(1, 0, 0, -1, 0, -220.7)" gradientUnits="userSpaceOnUse"><stop offset="0" stop-color="#e6184b"/><stop offset="1" stop-color="#810f00"/></linearGradient><linearGradient id="linear-gradient-15" x1="4.17" y1="-229.03" x2="4.37" y2="-224.93" gradientTransform="matrix(1, 0, 0, -1, 0, -220.7)" gradientUnits="userSpaceOnUse"><stop offset="0" stop-color="#831228"/><stop offset="1" stop-color="#e6224d"/></linearGradient><linearGradient id="linear-gradient-16" x1="11.15" y1="-230.84" x2="19.86" y2="-219.2" gradientTransform="matrix(1, 0, 0, -1, 0, -220.7)" gradientUnits="userSpaceOnUse"><stop offset="0" stop-color="#831228"/><stop offset="1" stop-color="#e6184b"/></linearGradient><linearGradient id="linear-gradient-17" x1="17.46" y1="-229.03" x2="17.61" y2="-226.56" gradientTransform="matrix(1, 0, 0, -1, 0, -220.7)" gradientUnits="userSpaceOnUse"><stop offset="0" stop-color="#6e0e1e"/><stop offset="1" stop-color="#d81847"/></linearGradient><linearGradient id="linear-gradient-18" x1="11.07" y1="-235.28" x2="10.97" y2="-221.62" gradientTransform="matrix(1, 0, 0, -1, 0, -220.7)" gradientUnits="userSpaceOnUse"><stop offset="0" stop-color="#e61a4d"/><stop offset="1" stop-color="#811328"/></linearGradient><linearGradient id="linear-gradient-19" x1="11.03" y1="-229.55" x2="10.94" y2="-240.28" gradientTransform="matrix(1, 0, 0, -1, 0, -220.7)" gradientUnits="userSpaceOnUse"><stop offset="0" stop-color="#d81847"/><stop offset="1" stop-color="#6e0e1e"/></linearGradient></defs><title>upornia</title><g id="Layer_2" data-name="Layer 2"><g id="Layer_1-2" data-name="Layer 1"><g id="Upornia"><path d="M3.07,2.09a3.28,3.28,0,0,0,.17.68,4.43,4.43,0,0,0,.28.78c.1.2.57,0,.45-.22a3.75,3.75,0,0,1-.22-.6,3.21,3.21,0,0,1-.19-.68C3.56,1.79,3.06,1.86,3.07,2.09Zm-.21-.34A6.24,6.24,0,0,0,4.09,4.21a6.75,6.75,0,0,0,1.12,1,3.32,3.32,0,0,1,.44.59c.13.2.4.24.53.43s.57,0,.46-.19S6.15,5.65,6,5.39A4,4,0,0,0,4.86,4.33a4.58,4.58,0,0,1-1.5-2.72C3.34,1.47,2.84,1.58,2.87,1.75ZM5.16,7.21c.07-.37.62-.68.89-.89l.16-.1c-.06,0-.08,0-.06,0a.69.69,0,0,1,0,.23,4.64,4.64,0,0,0,0,.87c0,.22.5.11.5-.06,0-.37,0-.72.08-1.08s-.27-.3-.5-.24a3.06,3.06,0,0,0-.94.61,1.43,1.43,0,0,0-.56.7C4.62,7.47,5.12,7.39,5.16,7.21Zm.92.14c0,.44,0,.88,0,1.32a5,5,0,0,0,.25,1.27c.06.22.56.09.5-.13a4.93,4.93,0,0,1-.25-1.18c0-.44,0-.88,0-1.32C6.58,7.06,6.08,7.14,6.08,7.35Zm.14,2.43a4.59,4.59,0,0,1,0,.82c0,.35,0,.71,0,1.06s.5.11.5-.06c0-.34,0-.67,0-1a6.44,6.44,0,0,0,0-.95C6.67,9.47,6.18,9.6,6.22,9.78Zm.07,1.92c0,1-.51,2.76.45,3.4.14.09.42,0,.44-.16a1.48,1.48,0,0,0-.37-1.06c-.12-.19-.59,0-.45.22A4,4,0,0,0,8,15.86a19,19,0,0,0,2.73.75c1.2.4,2.07.69,2.69-.46.06-.11-.05-.2-.15-.21-.62-.07-2-.27-2.45.28-.17.2,0,.43.22.51a2.3,2.3,0,0,0,1.58-.32c.17-.08.2-.31,0-.33-.63-.06-1.35-.2-1.84.28a.15.15,0,0,0,.06.24c2.33.66,4.09-1.36,5-3.22h-.49a2.86,2.86,0,0,1-1.77,2.72l.35.18c.27-.43.76-.62,1-1.06s.44-1.31.76-1.91.06-1.29.06-1.94a16.72,16.72,0,0,0,.18-2.21c-.13-1.06-.61-2.56.42-3.38a10.19,10.19,0,0,0,1.35-1.32A4.38,4.38,0,0,0,19,1.38c0-.23-.52-.11-.5.13.13,1.51-1.38,3.21-2.51,4a2.7,2.7,0,0,0-.77,2.61,12.47,12.47,0,0,1,.12,2.38,14,14,0,0,1-.15,2.71c-.24.64-.52,1.26-.76,1.91-.17.45-.78.65-1,1.06-.13.21.25.22.35.18a3.24,3.24,0,0,0,2-3.06c0-.26-.41-.17-.49,0a7,7,0,0,1-1.45,2.12,4.42,4.42,0,0,1-1.52.83q-1.53.14-.38.14l.42,0c0-.11,0-.22,0-.33a2.41,2.41,0,0,1-.81.2,6.67,6.67,0,0,1,1,0c.92,0-.31.32-.65.27A19,19,0,0,0,9.73,16a3.55,3.55,0,0,1-2.92-2.07l-.45.22a1.61,1.61,0,0,1,.32.87l.44-.16c-.7-.47-.33-2.45-.32-3.15C6.8,11.4,6.29,11.47,6.29,11.7Zm7.26-6.25a4.12,4.12,0,0,1,2.27.86c.44.3.63.93,1.1,1.14.13.06.59-.14.4-.22s-.4-.49-.59-.71a3.7,3.7,0,0,0-1-.73,3.85,3.85,0,0,0-2-.59C13.58,5.19,13.22,5.44,13.55,5.45ZM6.44,6a12.7,12.7,0,0,0,2.23-.61c.33-.12,0-.28-.2-.2a11.15,11.15,0,0,1-2,.54C6.28,5.8,6.1,6.09,6.44,6ZM3.25.89a1.23,1.23,0,0,1,0-.32c0-.09-.23,0-.25,0A1.24,1.24,0,0,0,3,1C3,1,3.25,1,3.25.89ZM3.2.52A1.49,1.49,0,0,1,3.27.2c0-.05-.11,0-.13,0a1.67,1.67,0,0,0-.08.32C3.07.59,3.19.57,3.2.52Z" style="fill:#d31e5b"/><path d="M3.22.15a.09.09,0,0,0,0,0m0,.79a1.93,1.93,0,0,0,0,.21s0,.11,0,.14-.1,0-.13,0L3.1,1.27m.14.52a.38.38,0,0,0,.06.09A.86.86,0,0,1,3.35,2a.87.87,0,0,0,.3.36m-.27-.87s-.17,0-.2,0,0-.14-.05-.18A1.35,1.35,0,0,1,3.1,1h0m-.22.84c-.09,0-.13.13-.19.19M3.22.11a.16.16,0,0,1,0,.07M3.16,1.46s0,.1,0,.15m15.71-.36a1.25,1.25,0,0,1,0-.17s0-.06,0-.09a.49.49,0,0,0,0-.11,1.67,1.67,0,0,1,0-.2,1.81,1.81,0,0,0,0-.2,1.68,1.68,0,0,0,0-.2.47.47,0,0,1,0-.15m.12,1.24a.53.53,0,0,1,0-.09.27.27,0,0,1,0-.06M18.8.14l0,0M13,5.13l.2.1.24.08a.32.32,0,0,0,.12,0m3.61,2s0,.06.06.08" style="fill:none;stroke:#d31e5b;stroke-miterlimit:10;stroke-width:0.06425817497102312px"/><path d="M21.81,4.47l-.05.22v0c-.67,2.61-2.62,3.54-4.48,4.18v2.28a6.89,6.89,0,0,0,4-3.14h0a9.78,9.78,0,0,0,.53-3.75v.05S21.82,4.43,21.81,4.47Z" style="fill:url(#linear-gradient)"/><path d="M17.27,8.85c1.64-.62,3.85-1.77,4.48-4.14v0l.05-.22,0-.17a6.67,6.67,0,0,1-4.48,3.08l-.1.06V8.85Z" style="fill:url(#linear-gradient-2)"/><path d="M21.75,4.72c-.64,2.36-2.84,3.51-4.48,4.14v0C19.13,8.26,21.08,7.33,21.75,4.72Z" style="fill:url(#linear-gradient-3)"/><path d="M21.3,8.06v0l0,.12-.05.23v0a5.65,5.65,0,0,1-4,4,6.56,6.56,0,0,1-.77,3c2.75-.45,5-2.84,4.82-7.39Z" style="fill:url(#linear-gradient-4)"/><path d="M17.27,11.17V12c0,.13,0,.26,0,.39a6.3,6.3,0,0,0,4-3.92v0c0-.07,0-.15.05-.23l0-.13V8A6.88,6.88,0,0,1,17.27,11.17Z" style="fill:url(#linear-gradient-5)"/><path d="M17.26,12.37s0,0,0,.06a5.65,5.65,0,0,0,4-4A6.31,6.31,0,0,1,17.26,12.37Z" style="fill:url(#linear-gradient-6)"/><path d="M.11,4.72v0ZM0,4.47,0,4.3v.05Z" style="fill:none"/><path d="M4.77,11.22V9C2.86,8.32.8,7.41.1,4.72v0L0,4.47l0-.12V4.3A9.78,9.78,0,0,0,.54,8h0A6.86,6.86,0,0,0,4.77,11.22Z" style="fill:url(#linear-gradient-7)"/><path d="M.1,4.69v0c.66,2.45,3,3.6,4.67,4.21V7.45l-.05,0A6.68,6.68,0,0,1,0,4.3c0,.06,0,.12,0,.17S.08,4.62.1,4.69Z" style="fill:url(#linear-gradient-8)"/><path d="M.11,4.72C.8,7.41,2.86,8.32,4.77,9v0C3.11,8.32.77,7.17.11,4.72Z" style="fill:url(#linear-gradient-9)"/><path d="M.1,4.69,0,4.47Z" style="fill:url(#linear-gradient-10)"/><path d="M.64,8.44v0c0-.08,0-.16-.05-.24s0-.07,0-.11V8c-.15,4.65,2.17,7,5,7.42a6.49,6.49,0,0,1-.76-3C3,11.87,1.27,10.9.64,8.44Z" style="fill:url(#linear-gradient-11)"/><path d="M4.77,12.08v-.86A6.84,6.84,0,0,1,.55,8v0l0,.12.06.24v0c.59,2.2,2.54,3.35,4.14,4C4.77,12.33,4.77,12.2,4.77,12.08Z" style="fill:url(#linear-gradient-12)"/><path d="M.64,8.44C1.26,10.9,3,11.87,4.78,12.5c0,0,0,0,0-.05C3.19,11.8,1.23,10.65.64,8.44Z" style="fill:url(#linear-gradient-13)"/><path d="M21.75,4.72c-.64,2.36-2.84,3.51-4.48,4.14v0C19.13,8.26,21.08,7.33,21.75,4.72Zm-4.49,7.66s0,0,0,.06a5.65,5.65,0,0,0,4-4A6.31,6.31,0,0,1,17.26,12.37ZM.11,4.72C.8,7.41,2.86,8.32,4.77,9v0C3.11,8.32.77,7.17.11,4.72ZM.64,8.44C1.26,10.9,3,11.87,4.78,12.5c0,0,0,0,0-.05C3.19,11.8,1.23,10.65.64,8.44Z" style="fill:#fff"/><path d="M3.18.33v0C2.85,2.43,4.25,4.09,5.3,5.1c.47.45.87.77,1,1l.27-.13c.78-.33,2.49-.83,2.49-.83C7.58,5,3.84,4,3.24,0c0,0,0,.1,0,.15Z" style="fill:url(#linear-gradient-14)"/><path d="M6.3,6.06h0c-.15-.18-.55-.5-1-1C4.25,4.09,2.85,2.43,3.17.35a.06.06,0,0,0,0,0l0-.18,0-.11V0C1.51,3.59,2.57,6.23,4.72,7.42l.05,0v0A3.64,3.64,0,0,1,6.3,6.06Z" style="fill:url(#linear-gradient-15)"/><path d="M16.72,5.1c1.05-1,2.45-2.68,2.13-4.76a0,0,0,0,0,0,0c0-.06,0-.13,0-.2l0-.14c-.59,4-4.34,5-5.83,5.1h0a23.87,23.87,0,0,1,2.73.95C15.85,5.88,16.25,5.56,16.72,5.1Z" style="fill:url(#linear-gradient-16)"/><path d="M18.77,0V0l0,.09c0,.06,0,.13,0,.2v0c.32,2.08-1.07,3.74-2.13,4.76-.47.45-.87.78-1,1a3.09,3.09,0,0,1,.89.6,4.93,4.93,0,0,1,.68.77l.1-.06C19.46,6.17,20.49,3.55,18.77,0Z" style="fill:url(#linear-gradient-17)"/><path d="M6.31,6.06l0,1.47.06,1.87.07,2,0,1.25c0,.15,0,.29,0,.42a0,0,0,0,0,0,0,3.65,3.65,0,0,0,.06.46c.53,2.62,3.37,2.79,4.4,2.79s3.64-.19,4.45-2.41a3.93,3.93,0,0,0,.21-1s0-.31,0-.46V6.06A23.7,23.7,0,0,0,13,5.11v7c0,1.53-.81,2.15-2,2.15s-2-.67-2-2.24V5.1s-1.7.5-2.49.83Z" style="fill:url(#linear-gradient-18)"/><path d="M17.22,7.41a4.13,4.13,0,0,0-.63-.75,3.15,3.15,0,0,0-.89-.6l0,6.92a3.81,3.81,0,0,1-.25,1c-.8,2.22-3.49,2.41-4.45,2.41s-3.87-.17-4.4-2.79c0-.15-.07-.31-.08-.47l-.24-7A3.62,3.62,0,0,0,4.78,7.43v4.65c0,.13,0,.25,0,.37s0,0,0,.05a6.46,6.46,0,0,0,.76,3C6.54,17.23,8.46,18,11,18s4.49-.76,5.51-2.56a6.63,6.63,0,0,0,.77-3s0,0,0-.06,0-.25,0-.39V8.85s0-1.42,0-1.42h0Z" style="fill:url(#linear-gradient-19)"/></g></g></g></svg>