<?xml version="1.0" encoding="utf-8"?>
<!-- Generator: Adobe Illustrator 16.0.0, SVG Export Plug-In . SVG Version: 6.00 Build 0)  -->
<!DOCTYPE svg PUBLIC "-//W3C//DTD SVG 1.1//EN" "http://www.w3.org/Graphics/SVG/1.1/DTD/svg11.dtd">
<svg version="1.1" id="Layer_1" xmlns="http://www.w3.org/2000/svg" xmlns:xlink="http://www.w3.org/1999/xlink" x="0px" y="0px"
	 width="788px" height="255.843px" viewBox="0 0 788 255.843" enable-background="new 0 0 788 255.843" xml:space="preserve">
<g>
	<g>
		<path fill-rule="evenodd" clip-rule="evenodd" fill="#00B0F2" d="M513.083,0.14c20.067,41.013,37.226,83.035,53.517,125.425
			c16.273,42.344,33.624,84.313,45.074,128.83c-24.983,0-49.394,0-73.409,0c-7.836-18.55-15.608-36.95-23.416-55.433
			c-13.685,0-27.449,0-41.515,0c0,18.52,0,36.779,0,55.386c-25.344,0-50.386,0-75.698,0c0-84.675,0-169.253,0-254.208
			C436.32,0.14,475.043,0.14,513.083,0.14z M495.739,146.729c-10.067-28.655-19.966-56.833-29.865-85.01
			c-0.294,0.045-0.588,0.091-0.882,0.136c1.64,28.236,3.279,56.473,4.929,84.874C478.778,146.729,486.893,146.729,495.739,146.729z"
			/>
		<path fill-rule="evenodd" clip-rule="evenodd" fill="#FF4A1A" d="M247.949,0.019c-20.23,84.946-40.353,169.439-60.579,254.372
			c-27.595,0-55.865,0-84.241,0C73.714,168.43,41.841,83.243,3.288,0.154c24.676,0,49.021,0,72.859,0
			c24.878,56.344,46.341,113.897,66.508,172.531c11.719-57.48,23.438-114.961,35.204-172.667
			C201.061,0.019,224.17,0.019,247.949,0.019z"/>
		<path fill-rule="evenodd" clip-rule="evenodd" fill="#00B0F2" d="M681.121,177.555C692.293,118.429,703.467,59.303,714.674,0
			c23.382,0,46.488,0,70.186,0c-20.197,84.821-40.339,169.408-60.58,254.416c-27.582,0-55.853,0-84.2,0
			C610.578,168.432,578.787,83.229,540.196,0.16c24.368,0,48.392,0,72.673,0C638.84,57.819,660.461,117.435,681.121,177.555z"/>
		<path fill-rule="evenodd" clip-rule="evenodd" fill="#00B0F2" d="M213.571,233.293c3.914-13.965,7.694-27.45,11.652-41.57
			c1.185,0.324,1.185,0.324,4.735,1.716c14.769,6.492,29.404,10.803,45.562,10.377c24.293-0.642,42.275-12.359,55.465-32.208
			c6.449-9.703,11.963-23.148,13.75-33.362c5.285-1.515,8.283-4.715,8.535-9.327c-0.062-3.5-2.5-8.062-9.559-8.209
			c-0.974-0.02-1.066,0.396-2.431-1.404c-11.857-15.856-23.201-32.012-31.569-50.104c-10.167-21.982-12.759-45.058-10.978-69.162
			c24.32,0,48.571,0,73.565,0c0,1.548,0,3.134,0,4.719c-0.012,55.808,0.042,111.614-0.057,167.421
			c-0.075,42.277-26.572,74.521-68.38,81.283c-28.365,4.589-55.057,3.64-79.985-12.687
			C217.182,236.176,216.999,235.606,213.571,233.293z"/>
	</g>
</g>
</svg>
