<?xml version="1.0" encoding="iso-8859-1"?>
<!-- Generator: Adobe Illustrator 19.0.0, SVG Export Plug-In . SVG Version: 6.00 Build 0)  -->
<svg xmlns="http://www.w3.org/2000/svg" xmlns:xlink="http://www.w3.org/1999/xlink" version="1.1" id="Capa_1" x="0px" y="0px" viewBox="0 0 230.983 230.983" style="enable-background:new 0 0 230.983 230.983;" xml:space="preserve" width="512px" height="512px">
<g>
	<path d="M115.491,26.413c-49.118,0-89.079,39.961-89.079,89.079s39.961,89.079,89.079,89.079s89.079-39.961,89.079-89.079   S164.609,26.413,115.491,26.413z M165.673,160.784l-45.977-31.421c-1.332,0.405-2.743,0.627-4.205,0.627   c-7.994,0-14.665-6.504-14.665-14.498c0-4.538,2.207-8.592,5.207-11.252V58.492h19v46.415c3,2.164,4.087,5.073,4.598,8.346   l46.679,31.843L165.673,160.784z" fill="#00B0F2"/>
	<path d="M115.491,0C51.81,0,0,51.81,0,115.492s51.81,115.491,115.491,115.491c63.683,0,115.492-51.81,115.492-115.491   S179.174,0,115.491,0z M115.491,215.983C60.08,215.983,15,170.903,15,115.492S60.08,15,115.491,15s100.492,45.08,100.492,100.491   S170.902,215.983,115.491,215.983z" fill="#00B0F2"/>
</g>
<g>
</g>
<g>
</g>
<g>
</g>
<g>
</g>
<g>
</g>
<g>
</g>
<g>
</g>
<g>
</g>
<g>
</g>
<g>
</g>
<g>
</g>
<g>
</g>
<g>
</g>
<g>
</g>
<g>
</g>
</svg>
