<?xml version="1.0" encoding="utf-8"?>
<!-- Generator: Adobe Illustrator 17.0.0, SVG Export Plug-In . SVG Version: 6.00 Build 0)  -->
<!DOCTYPE svg PUBLIC "-//W3C//DTD SVG 1.1//EN" "http://www.w3.org/Graphics/SVG/1.1/DTD/svg11.dtd">
<svg version="1.1" id="图层_1" xmlns="http://www.w3.org/2000/svg" xmlns:xlink="http://www.w3.org/1999/xlink" x="0px" y="0px"
	 width="350px" height="150px" viewBox="0 0 350 150" enable-background="new 0 0 350 150" xml:space="preserve">
<title>Artboard Copy 12</title>
<desc>Created with Sketch.</desc>
<g id="Artboard-Copy-12">
	<path id="_x34_" fill="#F44336" d="M245.015,96.49V80.38c4.05-4.5,4.05-4.5,8.64-9.9l19.53-22.86c4.32-4.95,6.03-7.2,8.37-10.71
		h18.45c-0.54,5.31-0.72,8.91-0.72,14.94V81.1h2.61c2.79,0,5.76-0.27,8.91-0.72v16.38c-2.7-0.36-6.03-0.54-8.82-0.54h-2.7v4.5
		c0,5.04,0.18,7.65,0.72,11.07h-18.54c0.45-3.06,0.72-6.84,0.72-11.25v-4.41h-25.47C250.865,96.13,248.345,96.22,245.015,96.49z
		 M282.275,81.28V70.84c0-4.05,0.18-9,0.54-12.96c-1.8,2.52-3.15,4.32-5.58,7.38l-13.14,16.02H282.275z"/>
	<path id="_x34__1_" fill="#F44336" d="M40.015,96.49V80.38c4.05-4.5,4.05-4.5,8.64-9.9l19.53-22.86c4.32-4.95,6.03-7.2,8.37-10.71
		h18.45c-0.54,5.31-0.72,8.91-0.72,14.94V81.1h2.61c2.79,0,5.76-0.27,8.91-0.72v16.38c-2.7-0.36-6.03-0.54-8.82-0.54h-2.7v4.5
		c0,5.04,0.18,7.65,0.72,11.07h-18.54c0.45-3.06,0.72-6.84,0.72-11.25v-4.41h-25.47C45.865,96.13,43.345,96.22,40.015,96.49z
		 M77.275,81.28V70.84c0-4.05,0.18-9,0.54-12.96c-1.8,2.52-3.15,4.32-5.58,7.38l-13.14,16.02H77.275z"/>
	<g id="Group" transform="translate(138.000000, 36.000000)">
		<circle id="Oval" fill="#F44336" cx="37.5" cy="38.164" r="37.5"/>
		<path id="Path" fill="#C4221E" d="M28.343,21.77L0.014,37.147C0.004,37.485,0,37.824,0,38.164c0,20.71,16.789,37.5,37.5,37.5
			c1.352,0,2.687-0.071,4.002-0.211l13.125-29.66c0,0,2.489-13.828-5.701-21.105C40.769,17.44,28.343,21.77,28.343,21.77z"/>
		<path id="Shape" fill="#FFFFFF" d="M37.5,56.914c-10.355,0-18.75-8.395-18.75-18.75s8.395-18.75,18.75-18.75
			s18.75,8.395,18.75,18.75S47.855,56.914,37.5,56.914z M37.5,29.018c-4.833,0-8.752,4.124-8.752,9.211s3.918,9.211,8.752,9.211
			s8.752-4.124,8.752-9.211S42.333,29.018,37.5,29.018z"/>
	</g>
</g>
</svg>
