<?xml version="1.0" encoding="utf-8"?>
<!-- Generator: Adobe Illustrator 17.0.0, SVG Export Plug-In . SVG Version: 6.00 Build 0)  -->
<!DOCTYPE svg PUBLIC "-//W3C//DTD SVG 1.1//EN" "http://www.w3.org/Graphics/SVG/1.1/DTD/svg11.dtd">
<svg version="1.1" id="图层_1" xmlns="http://www.w3.org/2000/svg" xmlns:xlink="http://www.w3.org/1999/xlink" x="0px" y="0px"
	 width="335px" height="100px" viewBox="0 0 335 100" enable-background="new 0 0 335 100" xml:space="preserve">
<g>
	<circle fill="#F44336" cx="50" cy="49.885" r="50"/>
	<path fill="#C4221E" d="M37.79,28.026L0.018,48.53C0.006,48.98,0,49.432,0,49.885c0,27.614,22.386,50,50,50
		c1.803,0,3.583-0.095,5.336-0.281l17.5-39.547c0,0,3.319-18.437-7.602-28.14C54.359,22.253,37.79,28.026,37.79,28.026z"/>
	<path fill="#FFFFFF" d="M50,74.885c-13.807,0-25-11.193-25-25s11.193-25,25-25s25,11.193,25,25S63.807,74.885,50,74.885z
		 M50,37.691c-6.444,0-11.669,5.498-11.669,12.281S43.555,62.253,50,62.253s11.669-5.498,11.669-12.281S56.444,37.691,50,37.691z"/>
</g>
<g>
	<path fill="#FFFFFF" d="M148.166,70.016h-8.571v-17.03h-16.24v17.029h-8.515v-40.26h8.515v16.24h16.239v-16.24h8.571
		L148.166,70.016L148.166,70.016z"/>
	<path fill="#FFFFFF" d="M188.28,63.137v6.879h-26.276V29.755h26.276v6.879h-17.818v9.812h16.747v6.428h-16.747v10.263H188.28z"/>
	<path fill="#FFFFFF" d="M208.941,70.016h-8.007V29.755h6.992l17.198,25.825h0.282V29.755h8.063v40.261h-6.992l-17.253-25.995
		h-0.282L208.941,70.016L208.941,70.016z"/>
	<path fill="#FFFFFF" d="M263.378,70.016h-8.515V36.86h-11.334v-7.105h31.127v7.105h-11.278V70.016z"/>
	<path fill="#FFFFFF" d="M283.869,70.016h-8.515l13.308-40.261h10.15l13.251,40.261h-9.135l-2.933-9.98h-13.139L283.869,70.016z
		 M293.681,37.762h-0.395L288.55,53.72h9.755L293.681,37.762z"/>
	<path fill="#FFFFFF" d="M330.638,70.016h-8.515V29.755h8.515V70.016z"/>
</g>
</svg>
