<?xml version="1.0" encoding="utf-8"?>
<!-- Generator: Adobe Illustrator 17.0.0, SVG Export Plug-In . SVG Version: 6.00 Build 0)  -->
<!DOCTYPE svg PUBLIC "-//W3C//DTD SVG 1.1//EN" "http://www.w3.org/Graphics/SVG/1.1/DTD/svg11.dtd">
<svg version="1.1" id="图层_1" xmlns="http://www.w3.org/2000/svg" xmlns:xlink="http://www.w3.org/1999/xlink" x="0px" y="0px"
	 width="100px" height="100px" viewBox="0 0 100 100" enable-background="new 0 0 100 100" xml:space="preserve">
<g>
	<circle fill="#F44336" cx="50" cy="50" r="50"/>
	<path fill="#C4221E" d="M37.79,28.141L0.018,48.645C0.006,49.095,0,49.547,0,50c0,27.614,22.386,50,50,50
		c1.803,0,3.583-0.095,5.336-0.281l17.5-39.547c0,0,3.319-18.437-7.602-28.14C54.359,22.368,37.79,28.141,37.79,28.141z"/>
	<path fill="#FFFFFF" d="M50,75c-13.807,0-25-11.193-25-25s11.193-25,25-25s25,11.193,25,25S63.807,75,50,75z M50,37.806
		c-6.444,0-11.669,5.498-11.669,12.281S43.555,62.368,50,62.368s11.669-5.498,11.669-12.281S56.444,37.806,50,37.806z"/>
</g>
</svg>
