<?xml version="1.0" encoding="utf-8"?>
<!-- Generator: Adobe Illustrator 17.0.0, SVG Export Plug-In . SVG Version: 6.00 Build 0)  -->
<!DOCTYPE svg PUBLIC "-//W3C//DTD SVG 1.1//EN" "http://www.w3.org/Graphics/SVG/1.1/DTD/svg11.dtd">
<svg version="1.1" id="图层_1" xmlns="http://www.w3.org/2000/svg" xmlns:xlink="http://www.w3.org/1999/xlink" x="0px" y="0px"
	 width="20px" height="20px" viewBox="0 0 20 20" enable-background="new 0 0 20 20" xml:space="preserve">
<g id="Menu">
	<path fill="#FFFFFF" d="M0.625,4.375h18.75C19.72,4.375,20,4.095,20,3.75s-0.28-0.625-0.625-0.625H0.625C0.28,3.125,0,3.405,0,3.75
		S0.28,4.375,0.625,4.375z"/>
	<path fill="#FFFFFF" d="M19.375,9.375H0.625C0.28,9.375,0,9.655,0,10s0.28,0.625,0.625,0.625h18.75C19.72,10.625,20,10.345,20,10
		S19.72,9.375,19.375,9.375z"/>
	<path fill="#FFFFFF" d="M19.375,15.625H0.625C0.28,15.625,0,15.905,0,16.25c0,0.345,0.28,0.625,0.625,0.625h18.75
		c0.345,0,0.625-0.28,0.625-0.625C20,15.905,19.72,15.625,19.375,15.625z"/>
</g>
</svg>
