<?xml version="1.0" encoding="utf-8"?>
<!-- Generator: Adobe Illustrator 17.0.0, SVG Export Plug-In . SVG Version: 6.00 Build 0)  -->
<!DOCTYPE svg PUBLIC "-//W3C//DTD SVG 1.1//EN" "http://www.w3.org/Graphics/SVG/1.1/DTD/svg11.dtd">
<svg version="1.1" id="图层_1" xmlns="http://www.w3.org/2000/svg" xmlns:xlink="http://www.w3.org/1999/xlink" x="0px" y="0px"
	 width="20px" height="20px" viewBox="0 0 20 20" enable-background="new 0 0 20 20" xml:space="preserve">
<g>
	<path fill="#FFFFFF" d="M13.053,12.273c0.162,0.136,0.249,0.269,0.319,0.26c0.987-0.125,1.465,0.614,2.038,1.186
		c1.518,1.513,3.031,3.029,4.59,4.588c-0.588,0.539-1.152,1.056-1.831,1.679c-0.784-0.812-1.628-1.696-2.483-2.569
		c-0.731-0.746-1.477-1.479-2.215-2.219c-0.482-0.485-1.089-0.899-0.933-1.738c0.016-0.088-0.134-0.207-0.259-0.386
		c-2.037,1.681-4.341,2.193-6.853,1.533c-1.713-0.45-3.088-1.451-4.106-2.914c-2.046-2.94-1.68-6.959,0.861-9.498
		c2.543-2.541,6.566-2.913,9.496-0.852c1.802,1.268,2.864,3.011,3.124,5.205C15.056,8.695,14.474,10.62,13.053,12.273z
		 M12.563,7.458c0.003-2.878-2.284-5.175-5.142-5.164C4.623,2.304,2.308,4.605,2.276,7.408c-0.032,2.853,2.266,5.168,5.134,5.172
		C10.316,12.584,12.559,10.354,12.563,7.458z"/>
</g>
</svg>
